<?xml version="1.0"?>
<svg id="Solid" xmlns="http://www.w3.org/2000/svg" viewBox="0 0 64 64">
  <path d="M50.45,34.69h-4.52v-13.2h12.54v31.66c0,2.12-1.72,3.85-3.84,3.86.02-.15.03-.31.03-.47v-17.64c0-2.32-1.89-4.21-4.21-4.21ZM58.47,14.17c0-2.13-1.73-3.86-3.86-3.86h-8.68v9.68h12.54v-5.82ZM53,57.47c.1-.29.16-.6.16-.93v-17.64c0-1.49-1.22-2.71-2.71-2.71h-4.52v23.06h4.52c1.17,0,2.17-.74,2.55-1.78ZM5.53,54.24V9.76c0-2.76,2.25-5.01,5.01-5.01h28.87c2.7,0,4.91,2.14,5.01,4.81.01.07.01.13.01.2v49.49H10.54c-2.76,0-5.01-2.25-5.01-5.01ZM24.92,40.88c0-.42-.34-.75-.75-.75s-.75.33-.75.75v13.2c0,.41.33.75.75.75s.75-.34.75-.75v-13.2ZM39.17,52.57c0-.41-.33-.75-.75-.75h-9.45c-.42,0-.75.34-.75.75s.33.75.75.75h9.45c.42,0,.75-.33.75-.75ZM39.17,47.57c0-.41-.33-.75-.75-.75h-9.45c-.42,0-.75.34-.75.75s.33.75.75.75h9.45c.42,0,.75-.33.75-.75ZM39.17,42.57c0-.41-.33-.75-.75-.75h-9.45c-.42,0-.75.34-.75.75s.33.75.75.75h9.45c.42,0,.75-.33.75-.75ZM10.11,9.39c0,.41.33.75.75.75h27.37c.41,0,.75-.34.75-.75s-.34-.75-.75-.75H10.86c-.42,0-.75.33-.75.75ZM10.11,14.39c0,.41.33.75.75.75h27.37c.41,0,.75-.34.75-.75s-.34-.75-.75-.75H10.86c-.42,0-.75.33-.75.75ZM10.11,33.55c0,2.06,1.68,3.75,3.75,3.75h21.37c2.06,0,3.75-1.69,3.75-3.75v-11.84c0-2.07-1.69-3.75-3.75-3.75H13.86c-2.07,0-3.75,1.68-3.75,3.75v11.84ZM10.11,42.57c0,.42.33.75.75.75h8.56c.42,0,.75-.33.75-.75s-.33-.75-.75-.75h-8.56c-.42,0-.75.34-.75.75ZM10.11,47.57c0,.42.33.75.75.75h8.56c.42,0,.75-.33.75-.75s-.33-.75-.75-.75h-8.56c-.42,0-.75.34-.75.75ZM10.11,52.57c0,.42.33.75.75.75h8.56c.42,0,.75-.33.75-.75s-.33-.75-.75-.75h-8.56c-.42,0-.75.34-.75.75ZM30.17,24.86l-2,4.45c-.65,1.46-2.4,2.24-3.98,1.62-.63-.25-1.34-.09-1.79.4l-.15.17c-1.11,1.21-2.77,3.01-3.9,4.3h16.88c1.24,0,2.25-1.01,2.25-2.25v-9.65h-5.83c-.64,0-1.22.38-1.48.96ZM11.61,33.55v-11.84c0-1.24,1.01-2.25,2.25-2.25h21.37c1.24,0,2.25,1.01,2.25,2.25v.69h-5.83c-1.23,0-2.34.72-2.84,1.84l-2,4.45c-.34.75-1.24,1.17-2.07.84-1.2-.47-2.58-.16-3.44.78l-.16.17c-1.44,1.57-3.77,4.12-4.79,5.32h-2.49c-1.24,0-2.25-1.01-2.25-2.25ZM13.91,25.18c0,1.84,1.5,3.33,3.33,3.33s3.33-1.49,3.33-3.33-1.49-3.32-3.33-3.32-3.33,1.49-3.33,3.32ZM17.24,27.01c1.01,0,1.83-.82,1.83-1.83s-.82-1.82-1.83-1.82-1.83.82-1.83,1.82.82,1.83,1.83,1.83Z"></path>
</svg>