<svg xmlns="http://www.w3.org/2000/svg" baseProfile="basic" viewBox="0 0 48 48"><path d="M39.999,18.998h-5v-8c0-1.653-1.347-3-3-3h-24c-1.655,0-3,1.347-3,3v28&#x9;c0,2.757,2.243,5,5,5h24h4c2.756,0,5-2.243,5-5v-17C42.999,20.345,41.653,18.998,39.999,18.998z"></path><path fill="#fff" d="M39.999,13.998h-6v27h4c2.208,0,4-1.791,4-4v-21&#x9;C41.999,14.894,41.103,13.998,39.999,13.998z"></path><path d="M37.999,41.998h-4c-0.552,0-1-0.448-1-1v-27c0-0.552,0.448-1,1-1h6&#x9;c1.653,0,3,1.347,3,3v21C42.999,39.755,40.755,41.998,37.999,41.998z M34.999,39.998h3c1.653,0,3-1.345,3-3v-21c0-0.551-0.449-1-1-1&#x9;h-5V39.998z"></path><path fill="#fff" d="M9.999,40.998c-2.209,0-4-1.791-4-4v-28c0-1.104,0.895-2,2-2&#x9;h24c1.104,0,2,0.896,2,2v28c0,2.209,1.791,4,4,4H9.999z"></path><path d="M37.999,41.998h-28c-2.757,0-5-2.243-5-5v-28c0-1.653,1.345-3,3-3h24&#x9;c1.653,0,3,1.347,3,3v28c0,1.655,1.345,3,3,3c0.551,0,1,0.449,1,1C38.999,41.55,38.55,41.998,37.999,41.998z M7.999,7.998&#x9;c-0.552,0-1,0.449-1,1v28c0,1.655,1.345,3,3,3h24.001c-0.628-0.835-1.001-1.875-1.001-3v-28c0-0.551-0.449-1-1-1H7.999z"></path><path d="M33.999,20.998h3c0.551,0,1-0.448,1-1c0-0.552-0.449-1-1-1h-3c-0.552,0-1,0.448-1,1&#x9;C32.999,20.55,33.447,20.998,33.999,20.998z"></path><path d="M36.999,22.998h-3c-0.552,0-1,0.448-1,1s0.448,1,1,1h3c0.551,0,1-0.448,1-1&#x9;S37.55,22.998,36.999,22.998z"></path><path d="M36.999,26.998h-3c-0.552,0-1,0.448-1,1c0,0.552,0.448,1,1,1h3c0.551,0,1-0.448,1-1&#x9;C37.999,27.446,37.55,26.998,36.999,26.998z"></path><path d="M36.999,30.998h-3c-0.552,0-1,0.448-1,1c0,0.553,0.448,1,1,1h3c0.551,0,1-0.448,1-1&#x9;C37.999,31.447,37.55,30.998,36.999,30.998z"></path><path d="M28.999,11.998h-18c-0.552,0-1,0.448-1,1v2c0,0.552,0.448,1,1,1h18&#x9;c0.552,0,1-0.448,1-1v-2C29.999,12.446,29.551,11.998,28.999,11.998z"></path><path fill-rule="evenodd" d="M15.633,34.561l-3.5-6.064&#x9;c-0.179-0.309-0.179-0.689,0-0.999l3.5-6.063c0.179-0.311,0.509-0.501,0.867-0.501h7c0.356,0,0.687,0.192,0.865,0.501l3.5,6.064&#x9;c0.179,0.309,0.179,0.689,0,0.999l-3.5,6.063c-0.179,0.311-0.509,0.5-0.865,0.5h-7C16.142,35.061,15.811,34.87,15.633,34.561z M22.921,33.061l2.924-5.063l-2.924-5.064h-5.844l-2.924,5.064l2.924,5.063H22.921z" clip-rule="evenodd"></path><path fill="#fff" fill-rule="evenodd" d="M9.999,36.999V34.07&#x9;l-2.111-1.405c-1.364-0.911-1.108-2.996,0.437-3.548l10.033-3.583c0.995-0.356,2.096,0.125,2.512,1.096l0.764,1.785&#x9;c0.321,0.752,0.153,1.624-0.425,2.201l-7.797,7.797C12.157,39.67,9.999,38.777,9.999,36.999z" clip-rule="evenodd"></path><path fill-rule="evenodd" d="M11.999,36.999v-4l-3-2l10.033-3.583&#x9;l0.764,1.785L11.999,36.999z" clip-rule="evenodd"></path><path fill-rule="evenodd" d="M19.999,31.999l-3-6l5,1&#x9;L19.999,31.999z" clip-rule="evenodd"></path></svg>