<?xml version="1.0"?>
<svg id="Solid" xmlns="http://www.w3.org/2000/svg" viewBox="0 0 64 64">
  <path d="M22.68,35.78c-.13,0-.26-.01-.39-.03l-1.45-.22v19.02c0,2.35,1.9,4.25,4.25,4.25h29.84c2.34,0,4.25-1.9,4.25-4.25v-25.33c0-2.34-1.91-4.25-4.25-4.25h-22.85c-.73.77-1.76,1.2-2.9,1.2h-2.76s-.02-.01-.03-.01h-.8s-2.24,3.02-2.24,3.02l1.56,2.74c.49.86.45,1.91-.11,2.73-.49.72-1.27,1.13-2.12,1.13ZM42.07,55.11h-4.17c-.42,0-.75-.34-.75-.75s.33-.75.75-.75h4.17c.42,0,.75.33.75.75s-.33.75-.75.75ZM42.07,50.52h-4.17c-.42,0-.75-.34-.75-.75s.33-.75.75-.75h4.17c.42,0,.75.34.75.75s-.33.75-.75.75ZM42.07,45.93h-4.17c-.42,0-.75-.33-.75-.75s.33-.75.75-.75h4.17c.42,0,.75.34.75.75s-.33.75-.75.75ZM42.07,41.34h-4.17c-.42,0-.75-.33-.75-.75s.33-.75.75-.75h4.17c.42,0,.75.34.75.75s-.33.75-.75.75ZM50.88,55.11h-4.86c-.41,0-.75-.34-.75-.75s.34-.75.75-.75h4.86c.41,0,.74.33.74.75s-.33.75-.74.75ZM54.36,50.52h-8.34c-.41,0-.75-.34-.75-.75s.34-.75.75-.75h8.34c.42,0,.75.34.75.75s-.33.75-.75.75ZM45.27,45.18c0-.41.34-.75.75-.75h4.86c.41,0,.74.34.74.75s-.33.75-.74.75h-4.86c-.41,0-.75-.33-.75-.75ZM54.36,41.34h-8.34c-.41,0-.75-.33-.75-.75s.34-.75.75-.75h8.34c.42,0,.75.34.75.75s-.33.75-.75.75ZM30.8,29.64h23.56c.42,0,.75.34.75.75s-.33.75-.75.75h-23.56c-.42,0-.75-.34-.75-.75s.33-.75.75-.75ZM30.8,34.64h23.56c.42,0,.75.34.75.75s-.33.75-.75.75h-23.56c-.42,0-.75-.34-.75-.75s.33-.75.75-.75ZM27.22,39.24h3.77c2.07,0,3.75,1.69,3.75,3.75v7.48c0,2.07-1.68,3.75-3.75,3.75h-3.77c-2.07,0-3.75-1.68-3.75-3.75v-7.48c0-2.06,1.68-3.75,3.75-3.75ZM43.14,9.12l-4.63,1.49c-.08.02-.16.04-.23.04-.32,0-.61-.21-.72-.52-.12-.4.09-.82.49-.95l4.63-1.49c.39-.12.82.09.94.49.13.39-.09.81-.48.94ZM41.38,13.8c.41.02.73.38.7.79-.02.4-.35.71-.75.71h-.04l-2.17-.13c-.42-.03-.73-.39-.71-.8.03-.41.39-.72.8-.7l2.17.13ZM37.87,4.98l-1.76,1.75c-.14.15-.33.22-.53.22s-.38-.07-.53-.22c-.29-.29-.29-.77,0-1.06l1.76-1.75c.29-.3.77-.3,1.06,0,.29.29.29.76,0,1.06ZM31.76,17.72l-2.83-7.98,2.56-.16c.96-.04,1.9.56,2.23,1.49l.92,2.59c.34.94.01,1.97-.8,2.55l-2.08,1.51ZM24.97,50.47v-7.48c0-1.24,1.01-2.25,2.25-2.25h3.77c1.24,0,2.25,1.01,2.25,2.25v7.48c0,1.24-1.01,2.25-2.25,2.25h-3.77c-1.24,0-2.25-1.01-2.25-2.25ZM30.64,19.05l.81,2.29c.3.84.21,1.69-.25,2.34h0s-.07.08-.09.12c-.46.56-1.15.87-1.93.87h-2.27s-5.95-16.77-5.95-16.77l1.75-1.43c.65-.53,1.45-.72,2.2-.51.77.22,1.38.82,1.67,1.66l.63,1.78,3.43,9.65ZM9.9,19.04c-.19-.54-.21-1.12-.09-1.59t0-.01c.09-.32.24-.59.46-.77l9.46-7.76,5.59,15.74h-.12l-11.91-.05h-.2c-.28,0-.56-.11-.83-.3-.4-.28-.76-.75-.96-1.31l-1.4-3.95ZM18.65,33.26l-4.06-7.15,9.14.04-1.88,2.53c-.17.24-.19.56-.05.82l1.81,3.16c.21.37.19.8-.05,1.14-.24.35-.62.52-1.05.46l-2.26-.34s-.11-.02-.16-.02l-.66-.1c-.33-.05-.62-.25-.78-.54ZM4.94,21.6c-.37-1.04.17-2.18,1.21-2.55l2.09-.74c.02.41.11.83.25,1.24l1.4,3.94c.14.41.34.78.58,1.11l-2.09.75c-.49.17-1.04.15-1.52-.08-.48-.23-.84-.63-1.02-1.13l-.9-2.54Z"></path>
</svg>