<?xml version="1.0"?>
<svg id="Solid" xmlns="http://www.w3.org/2000/svg" viewBox="0 0 64 64">
  <path d="M58.65,47.26c.65.96.78,2.13.36,3.21l-1.83,4.64c-.52,1.33-1.78,2.19-3.21,2.19H10.03c-1.43,0-2.69-.86-3.21-2.19l-1.83-4.64c-.42-1.08-.29-2.25.36-3.2.61-.9,1.55-1.43,2.62-1.49.08-.02.15-.02.23-.02h7.2c-.04.18-.05.36-.05.54v3.69c0,2.07,1.68,3.75,3.75,3.75h25.8c2.07,0,3.75-1.68,3.75-3.75v-3.69c0-.18-.01-.36-.04-.54h7.19c.08,0,.15,0,.23.02,1.07.06,2.01.59,2.62,1.48ZM47.6,44.26H8.72v-26.03c0-2.35,1.91-4.25,4.25-4.25h5.73c.27.32.61.6.98.81l-1.82,6.3-.86,3-3.07,10.62-.66,2.28c-.29.99-.09,2.04.53,2.86.63.83,1.58,1.31,2.61,1.31h10.03c1.03,0,1.98-.48,2.61-1.31.62-.82.82-1.87.53-2.86l-.65-2.25c-.01-.06-.03-.11-.05-.16l-2.97-10.31c0-.07-.02-.13-.05-.19l-.9-3.13-1.78-6.16c.37-.21.71-.49.98-.81h26.87c2.34,0,4.25,1.9,4.25,4.25v26.03h-7.68ZM36.45,24.73c0,1.36.7,2.57,1.88,3.25.58.34,1.23.51,1.87.51s1.29-.17,1.88-.51l3-1.73c1.17-.68,1.87-1.89,1.87-3.25s-.7-2.57-1.87-3.25l-3-1.73c-1.18-.68-2.58-.68-3.75,0-1.18.68-1.88,1.89-1.88,3.25v3.46ZM33.39,33.71c0,.41.34.75.75.75h15.12c.41,0,.75-.34.75-.75s-.34-.75-.75-.75h-15.12c-.41,0-.75.33-.75.75ZM34.14,39.46h15.12c.41,0,.75-.34.75-.75s-.34-.75-.75-.75h-15.12c-.41,0-.75.33-.75.75s.34.75.75.75ZM16.92,45.76h30.16c.05.18.07.36.07.54v3.69c0,1.24-1.01,2.25-2.25,2.25h-25.8c-1.24,0-2.25-1.01-2.25-2.25v-3.69c0-.18.02-.36.07-.54ZM23.54,49.17c0,.42.34.75.75.75h15.42c.41,0,.75-.33.75-.75s-.34-.75-.75-.75h-15.42c-.41,0-.75.34-.75.75ZM39.08,26.68c.7.41,1.54.41,2.25,0l3-1.73c.7-.41,1.12-1.14,1.12-1.95s-.42-1.54-1.12-1.95l-3-1.73c-.36-.2-.74-.31-1.13-.31s-.77.11-1.12.31c-.71.41-1.13,1.14-1.13,1.95v3.46c0,.81.42,1.54,1.13,1.95ZM31.79,10.69c.14.18.36.27.57.27.17,0,.34-.06.48-.17,1.15-.95,1.65-2.39,1.28-3.67-.28-.95-.95-1.53-1.33-1.79-.35-.23-.81-.14-1.05.2-.23.34-.14.81.2,1.04.21.15.59.46.73.97.21.7-.1,1.53-.78,2.09-.32.26-.37.74-.1,1.06ZM27.79,10.69c.14.18.36.27.57.27.17,0,.34-.06.48-.17,1.15-.95,1.65-2.39,1.28-3.67-.28-.95-.96-1.53-1.33-1.79-.35-.23-.81-.14-1.05.2-.23.34-.14.81.2,1.04.21.15.59.46.73.97.21.7-.1,1.53-.78,2.09-.32.26-.37.74-.1,1.06ZM14.71,37.41c-.15.53-.05,1.09.29,1.54.34.45.85.71,1.41.71h10.03c.56,0,1.07-.26,1.41-.71.34-.45.44-1.01.29-1.54l-.62-2.16-6.09-6.09-6.1,6.09-.62,2.16ZM22.49,28.1l4.17,4.17-1.87-6.48-2.3,2.31ZM19.16,21.99l-.62,2.16,2.89,2.89,2.89-2.9-.62-2.15h-4.54ZM23.54,11.63c0-1.16-.95-2.11-2.11-2.11s-2.11.95-2.11,2.11c0,.44.14.85.36,1.18.26.39.65.69,1.11.83.2.07.41.1.64.1s.44-.03.64-.1c.45-.14.84-.44,1.11-.83.22-.33.36-.74.36-1.18ZM21.43,15.24c-.11,0-.21,0-.32-.02l-1.52,5.27h3.67l-1.51-5.27c-.11.02-.21.02-.32.02ZM16.2,32.26l4.17-4.16-2.31-2.31-1.86,6.47ZM14.91,6.57c.34-.23.43-.7.2-1.04-.24-.34-.7-.43-1.05-.2-.37.26-1.05.84-1.33,1.79-.37,1.28.13,2.72,1.28,3.67.14.11.31.17.48.17.21,0,.43-.09.57-.27.27-.32.22-.8-.1-1.06-.68-.56-.99-1.39-.79-2.09.15-.51.53-.82.74-.97ZM10.01,10.79c.14.11.31.17.48.17.21,0,.43-.09.57-.27.27-.32.22-.8-.1-1.06-.68-.56-.99-1.39-.79-2.09.15-.51.53-.82.74-.97.34-.23.43-.7.2-1.04-.24-.34-.7-.43-1.05-.2-.37.26-1.05.84-1.33,1.79-.37,1.28.13,2.72,1.28,3.67Z"></path>
</svg>