<svg xmlns="http://www.w3.org/2000/svg" baseProfile="basic" viewBox="0 0 48 48"><path d="M33,46H12c-2.761,0-5-2.239-5-5v-2h30v3C37,44.209,35.209,46,33,46z"></path><path fill="#fff" d="M14,7c0-1.71-1.431-3.086-3.161-2.996C9.216,4.089,8,5.545,8,7.17L8,31v8v1c0,1.657,1.343,3,3,3h23&#x9;c1.105,0,2-0.895,2-2v-2h2c1.105,0,2-0.895,2-2V7H14z"></path><path d="M33,44H12c-2.757,0-5-2.243-5-5h2c0,1.654,1.346,3,3,3h21c1.103,0,2-0.897,2-2v-1h2v1C37,42.206,35.206,44,33,44z"></path><path d="M37,40H14c-0.552,0-1-0.448-1-1c0-1.103-0.897-2-2-2s-2,0.897-2,2c0,0.552-0.448,1-1,1s-1-0.448-1-1V7c0-2.206,1.794-4,4-4&#x9;c1.86,0,3.428,1.277,3.874,3H40c0.552,0,1,0.448,1,1v29C41,38.206,39.206,40,37,40z M14.874,38H37c1.103,0,2-0.897,2-2V8H14&#x9;c-0.552,0-1-0.448-1-1c0-1.103-0.897-2-2-2S9,5.897,9,7v28.537C9.589,35.195,10.272,35,11,35C12.86,35,14.428,36.277,14.874,38z"></path><path d="M35,29H19c-0.552,0-1-0.448-1-1s0.448-1,1-1h16c0.552,0,1,0.448,1,1S35.552,29,35,29z"></path><path d="M35,34H19c-0.552,0-1-0.448-1-1s0.448-1,1-1h16c0.552,0,1,0.448,1,1S35.552,34,35,34z"></path><path d="M35,24h-4c-0.552,0-1-0.448-1-1s0.448-1,1-1h4c0.552,0,1,0.448,1,1S35.552,24,35,24z"></path><path d="M35,19h-4c-0.552,0-1-0.448-1-1s0.448-1,1-1h4c0.552,0,1,0.448,1,1S35.552,19,35,19z"></path><path d="M35,14h-4c-0.552,0-1-0.448-1-1s0.448-1,1-1h4c0.552,0,1,0.448,1,1S35.552,14,35,14z"></path><path d="M27,24h-8c-0.552,0-1-0.448-1-1V12c0-0.552,0.448-1,1-1h8c0.552,0,1,0.448,1,1v11C28,23.552,27.552,24,27,24z M20,22h6v-9&#x9;h-6V22z"></path><rect width="2" height="32" x="13" y="7"></rect><path d="M36,42h1c2.209,0,4-1.791,4-4v-2c0,0-1,3-5,3V42z"></path></svg>