<?xml version="1.0"?>
<svg id="Solid" xmlns="http://www.w3.org/2000/svg" viewBox="0 0 64 64">
  <path d="M56.64,30.54v-2.87c0-.42.33-.75.75-.75s.75.33.75.75v2.87c0,.41-.34.75-.75.75s-.75-.34-.75-.75ZM52.98,35.64h.01c.41,0,.75-.33.75-.74l.02-11.59c0-.41-.33-.75-.75-.75s-.75.34-.75.75l-.02,11.58c0,.42.33.75.74.75ZM49.61,31.29c.42,0,.75-.34.75-.75v-2.87c0-.42-.33-.75-.75-.75s-.75.33-.75.75v2.87c0,.41.34.75.75.75ZM6.61,31.29c.42,0,.75-.34.75-.75v-2.87c0-.42-.33-.75-.75-.75s-.75.33-.75.75v2.87c0,.41.34.75.75.75ZM11.01,35.64h.01c.41,0,.74-.33.74-.75l-.02-11.58c0-.41-.34-.75-.75-.75s-.75.34-.75.75l.02,11.59c0,.41.34.74.75.74ZM14.39,31.29c.41,0,.75-.34.75-.75v-2.87c0-.42-.34-.75-.75-.75s-.75.33-.75.75v2.87c0,.41.33.75.75.75ZM22.89,55.54c-.43.03-.85.04-1.27.04h-.39c.61.8,1.56,1.71,2.66,1.71h4.25v-1.13h-1.43c-.9,0-1.75-.33-2.41-.92-.46.24-1.01.27-1.41.3ZM30.01,56.16h-.37v1.05c0,.22.03.43.09.61.28.99,1.15,1.64,2.16,1.64h2.02c1.02,0,1.89-.65,2.17-1.63.06-.19.08-.4.08-.62v-6.8h-3.19c.43.59.68,1.32.68,2.1,0,2.01-1.63,3.65-3.64,3.65ZM25.17,53.96s0,.02-.01.03c.4.42.96.67,1.55.67h3.3c1.18,0,2.14-.96,2.14-2.15,0-1.07-.8-1.98-1.86-2.11-.06,0-.11-.02-.15,0-.05-.01-.09-.01-.13-.01h-.54c-.36,0-.67-.27-.74-.63-.03-.23-.15-.44-.33-.59-.16-.14-.38-.21-.61-.21h-2.31c.09.3.12.62.09.95-.04.45-.07.88-.11,1.32-.06.9-.13,1.82-.29,2.74ZM28.05,45.7v1.77c.45.04.85.19,1.21.47.04.02.07.05.11.08.07.06.14.12.2.19.19.19.34.42.45.67.14,0,.27.01.41.03h6.07c.1,0,.19-.01.25-.03,0,0,.01.01.01,0,.58-.13.99-.63.99-1.22v-1.96c0-.69-.56-1.25-1.25-1.25h-7.16c-.73,0-1.29.56-1.29,1.25ZM36.11,42.95c.58-.72.9-1.62.9-2.56,0-2.26-1.84-4.1-4.11-4.1s-4.11,1.84-4.11,4.1c0,.94.32,1.84.91,2.56h6.41ZM20.1,54.14h.06c.37-.03.67-.05.96-.06h.49c.39,0,.77,0,1.16-.03.64-.04.82-.09.89-.2,0-.01,0-.02.01-.04.01-.03.02-.06.02-.1.15-.85.21-1.7.28-2.6.03-.45.06-.9.11-1.35.03-.29-.06-.58-.22-.81-.01-.02-.03-.04-.04-.06-.14-.18-.33-.32-.55-.4l-.12-.05-1.28-.48c-.39-.15-.58-.58-.44-.97.15-.39.59-.58.97-.44l.42.16c.17-2.19.39-4.81.39-4.81l1.49.13s-.26,3.03-.43,5.29c.12.07.24.15.34.25.24-.08.51-.12.77-.12h1.17v-1.75c0-1.08.63-2.01,1.53-2.46-.51-.85-.79-1.84-.79-2.85,0-3.09,2.52-5.6,5.61-5.6s5.61,2.51,5.61,5.6c0,1.01-.27,2-.79,2.85.91.45,1.53,1.38,1.53,2.46v1.96c0,1.08-.64,2.04-1.59,2.49v7.14h3.18l-.39-14.89c-.01-.41.32-.75.73-.77.46-.01.76.32.77.74l.39,14.88c.95-.2,1.76-1.02,2.28-1.73.73-1.02,1.46-10.3,1.73-13.79.12-1.5.2-2.58.26-3.01.04-.28.06-.56.06-.84,0-1.31-.44-2.43-1.28-3.32-.47-.5-1.02-.88-1.65-1.14-.57-.24-1.18-.37-1.83-.37-.94,0-1.74-.24-2.39-.75-.04-.02-.07-.05-.11-.08-.1-.08-.2-.17-.29-.27-.08-.08-.15-.16-.22-.24-.2-.24-.37-.51-.52-.82-.07-.12-.12-.25-.17-.38-.05-.12-.1-.24-.14-.36-1.43.88-3.25,1.38-5.17,1.38s-3.77-.51-5.2-1.41c-.04.1-.07.19-.12.29-.03.08-.07.17-.11.25-.26.54-.62,1.07-1.12,1.51-.03.03-.07.06-.11.08-.67.53-1.48.8-2.35.8-.65,0-1.26.13-1.81.36-.58.24-1.11.59-1.54,1.03l-.07.07c-.57.6-.94,1.23-1.14,1.93,0,.01-.01.03-.01.04-.12.43-.18.82-.18,1.2,0,.04,0,.08-.01.12-.41,2.78-1.3,9.01-1.9,13.22-.12.81.13,1.62.68,2.22.56.61,1.34.93,2.19.9ZM37.57,26.42s-.1.05-.15.07c-.21.12-.43.22-.66.31-.04.02-.08.03-.12.04-.19.09-.38.16-.58.22-.28.1-.56.18-.85.24-.25.07-.5.12-.75.15-1.02.17-2.06.17-3.11,0-.26-.04-.53-.09-.79-.16-.27-.06-.54-.14-.81-.23-.17-.05-.33-.11-.5-.18-.06-.02-.11-.04-.16-.07-.15-.05-.29-.12-.43-.19-.08-.03-.15-.07-.22-.11-.08-.03-.16-.07-.23-.11,0,.32-.01.64-.02.97,0,.06,0,.13-.01.21-.01.3-.04.62-.1.96,1.23.95,2.96,1.48,4.82,1.48s3.59-.53,4.82-1.47c-.05-.31-.08-.63-.1-.99-.02-.24-.03-.49-.04-.73-.01-.14-.01-.28-.01-.42ZM37.93,24.43c2.15-1.6,3.43-4.14,3.43-6.81,0-.83-.13-1.65-.37-2.44-1.14.31-2.29.49-3.49.49-2.4,0-4.64-.75-6.32-2.11-1.36,1.56-3.3,2.44-5.4,2.44-.4,0-.79-.04-1.09-.08-.35,1.39-.28,2.76.12,4.13.5,1.73,1.58,3.26,3.04,4.35.02.01.04.03.06.04.14.1.28.2.42.29.28.19.57.35.87.5s.61.28.93.39c.47.16.95.28,1.44.35,1.35.2,2.7.1,3.95-.31.42-.14.82-.3,1.22-.5.2-.1.4-.21.59-.33.19-.12.37-.24.55-.37.02,0,.03-.02.05-.03ZM22.77,28.66c.87.79,1.85,1.47,2.92,2.03.09-.1.17-.22.24-.34.03-.04.05-.08.07-.13.08-.12.14-.26.2-.4.06-.12.11-.25.15-.38,0-.01.01-.02.01-.04.04-.1.07-.2.09-.31.04-.12.06-.24.09-.37.09-.45.14-.85.14-1.21,0-.04.01-.07.01-.1.02-.71.02-1.36.02-2.01-1.59-1.25-2.77-2.99-3.34-4.93-.47-1.6-.55-3.22-.22-4.8.16-.83.93-1.37,1.76-1.24.27.04.57.07.87.07,1.65,0,3.17-.68,4.16-1.88.56-.68,1.52-.77,2.19-.22,1.38,1.13,3.35,1.77,5.37,1.77,1.03,0,2.03-.15,2.96-.46.39-.13.81-.1,1.19.09.37.19.66.54.78.94.28.94.43,1.91.43,2.88,0,3.03-1.41,5.93-3.79,7.82-.01.63-.01,1.35.04,2.03.03.48.08.9.15,1.28.03.15.06.3.1.44.02.1.04.19.08.28.03.15.08.29.14.43.06.16.13.31.21.45.08.14.16.27.25.38,1.11-.57,2.11-1.26,2.99-2.06,2.45-2.2,3.77-5.03,3.77-7.85,0-.99-.16-1.99-.5-2.95-2.23-6.45-6.91-13.33-13.4-13.33s-11.16,6.88-13.39,13.33c-1.3,3.7-.05,7.83,3.26,10.79Z"></path>
</svg>