<?xml version="1.0"?>
<svg id="Solid" xmlns="http://www.w3.org/2000/svg" viewBox="0 0 64 64">
  <path d="M55.31,10.58h-.94s-.07.01-.1.01c-.02,0-.04,0-.06-.01H9.79s-.1.01-.15,0h-.95c-2.34,0-4.25,1.91-4.25,4.25v25.42c0,2.35,1.91,4.25,4.25,4.25h46.62c2.34,0,4.25-1.9,4.25-4.25V14.83c0-2.34-1.91-4.25-4.25-4.25ZM53.5,34.8c0,1.52-1.23,2.75-2.75,2.75h-8.05l-2.71,2.84c-.71.74-1.7,1.16-2.71,1.16H14.16c-2.07,0-3.75-1.68-3.75-3.75v-4.64c0-.84.38-1.58.97-2.08-.64-1.55-.97-3.19-.97-4.87,0-1.91.42-3.74,1.23-5.45.01-.02.02-.04.03-.06.98-2.04,2.51-3.79,4.41-5.06.01,0,.02-.01.04-.02,2.07-1.38,4.49-2.1,6.98-2.1,5.25,0,10,3.28,11.86,8.19.02.03.03.07.04.11.02.02.02.05.03.08.51,1.38.76,2.83.76,4.31s-.24,2.85-.73,4.2h15.69c1.52,0,2.75,1.23,2.75,2.75v1.64ZM53.73,26.29h-12.62c-.42,0-.75-.34-.75-.75s.33-.75.75-.75h12.62c.41,0,.75.33.75.75s-.34.75-.75.75ZM53.73,21.29h-12.62c-.42,0-.75-.34-.75-.75s.33-.75.75-.75h12.62c.41,0,.75.33.75.75s-.34.75-.75.75ZM53.73,16.29h-12.62c-.42,0-.75-.34-.75-.75s.33-.75.75-.75h12.62c.41,0,.75.33.75.75s-.34.75-.75.75ZM15.72,4.22h32.56c1.16,0,2.24.62,2.82,1.62l1.87,3.24H11.03l1.87-3.24c.58-1,1.66-1.62,2.82-1.62ZM52,33.16v1.64c0,.69-.56,1.25-1.25,1.25H11.91v-2.89c0-.5.29-.93.71-1.12.02-.02.04-.02.05-.03.15-.07.32-.1.49-.1h37.59c.69,0,1.25.56,1.25,1.25ZM46.42,59.58c-.01-.09-.04-.17-.09-.24l-8.05-13.34h5.72l2.87,13.68c-.04.07-.11.1-.2.1-.13,0-.22-.07-.25-.2ZM11.91,37.55h28.72l-1.72,1.8c-.43.44-1.02.7-1.63.7H14.16c-1.24,0-2.25-1.01-2.25-2.25v-.25ZM13.3,20.83c.68-1.27,1.62-2.4,2.76-3.31.03.08.06.15.09.22.63,1.58,2.09,2.71,3.81,2.95.51.08,1.02.06,1.51.04.9-.02,1.68-.05,2.23.45.34.3.61.63.89.97.56.69,1.15,1.4,2.23,1.87.77.33,1.65.49,2.56.49,1.5,0,3.09-.43,4.51-1.27.27.96.4,1.96.4,2.97,0,1.45-.28,2.86-.82,4.2h-16.23c.11-1.39-.01-2.75-.36-4.06-.6-2.3-1.92-4.31-3.58-5.52ZM17.54,17.17c-.07-.17-.14-.35-.19-.55,1.74-1.05,3.71-1.6,5.75-1.6,4.48,0,8.53,2.7,10.28,6.79-1.93,1.23-4.26,1.57-5.97.83-.74-.32-1.17-.84-1.66-1.44-.31-.37-.63-.76-1.05-1.14-1-.9-2.21-.86-3.28-.83-.45.02-.87.03-1.25-.02-1.17-.17-2.2-.96-2.63-2.04ZM17.33,59.78c-.09,0-.16-.03-.2-.1l2.87-13.68h5.72l-8.05,13.34c-.05.07-.08.15-.09.24-.03.13-.12.2-.25.2ZM12.74,30.45c-.55-1.35-.83-2.77-.83-4.24,0-1.38.25-2.72.74-3.99,1.28,1.03,2.29,2.65,2.79,4.51.31,1.18.41,2.41.3,3.68h-2.58c-.14,0-.29.01-.42.04Z"></path>
</svg>